# Blender v2.72 (sub 0) OBJ File: 'robot.blend'
# www.blender.org
mtllib robotdead.mtl
o Cube.001_Cube.002
v -2.121545 1.176168 2.343538
v -2.332327 1.528181 -2.840250
v 2.738008 2.675020 -2.968541
v 2.948790 2.323008 2.215247
v -2.557922 3.122217 2.493431
v -2.768703 3.474230 -2.690357
v 2.301632 4.621070 -2.818648
v 2.512414 4.269057 2.365140
v -2.671552 3.311983 -0.301086
v -2.235175 1.365934 -0.450979
v 2.398783 4.458822 -0.429377
v 2.835160 2.512773 -0.579270
v -2.218697 1.338415 -0.045732
v 2.415262 4.431304 -0.024130
v -2.655074 3.284464 0.104161
v 2.851638 2.485255 -0.174023
v -0.043914 4.090539 -2.759300
v 0.392463 2.144491 -2.909193
v 0.166868 3.738527 2.424488
v 0.603245 1.643010 2.298248
v 0.489615 1.982244 -0.519923
v -0.106444 3.878285 -0.185658
v 0.506916 1.955003 -0.113981
v -0.104616 3.875232 -0.140703
v 0.016772 2.059515 -2.899687
v -0.208823 3.653551 2.433994
v -0.148120 3.868858 -0.184603
v -0.146292 3.865806 -0.139649
v -0.419604 4.005564 -2.749794
v 0.227554 1.557504 2.298248
v 0.112219 1.897082 -0.511070
v 0.130402 1.869749 -0.105170
v -4.000000 0.000000 -1.399392
v -4.000000 0.000000 -4.000719
v 4.000000 0.000000 -4.000719
v 4.000000 0.000000 -1.399392
v -4.000000 1.000000 -1.399392
v -4.000000 1.000000 -4.000719
v 4.000000 1.000000 -4.000719
v 4.000000 1.000000 -1.399392
v -0.192514 1.000000 -4.000719
v -0.192514 0.000000 -4.000719
v -0.192514 1.000000 -1.399392
v -0.192514 0.000000 -1.399392
v 0.195319 1.000000 -4.000719
v 0.195319 0.000000 -1.399392
v 0.195319 0.000000 -4.000719
v 0.195319 1.000000 -1.399392
v -4.000000 0.697183 -1.399392
v -4.000000 0.697183 -4.000719
v 4.000000 0.697183 -4.000719
v 4.000000 0.697183 -1.399392
v -0.192514 0.697183 -4.000719
v -0.192514 0.441442 -1.294976
v 0.195319 0.697183 -4.000719
v 0.195319 0.441442 -1.294976
v -4.000000 0.299296 -4.000719
v 4.000000 0.299296 -4.000719
v 4.000000 0.299296 -1.399392
v -0.192514 0.299296 -4.000719
v -0.192514 0.046021 -1.250742
v 0.195319 0.299296 -4.000719
v 0.195319 0.046021 -1.250742
v -4.000000 0.299296 -1.399392
v -0.192514 0.178919 -0.062725
v 0.195319 0.178919 -0.062725
v 0.195319 0.574340 -0.106959
v -0.192514 0.574340 -0.106959
v -4.000000 0.059725 1.563966
v -4.000000 0.348918 4.149169
v 4.000000 0.348918 4.149169
v 4.000000 0.059725 1.563966
v -4.000000 1.053527 1.452795
v -4.000000 1.342719 4.037997
v 4.000000 1.342719 4.037997
v 4.000000 1.053527 1.452795
v -0.192514 1.342719 4.037997
v -0.192514 0.348918 4.149169
v -0.192514 1.053527 1.452795
v -0.192514 0.059725 1.563966
v 0.195319 1.342719 4.037997
v 0.195319 0.059725 1.563966
v 0.195319 0.348918 4.149169
v 0.195319 1.053527 1.452795
v -4.000000 0.752587 1.486460
v -4.000000 1.041780 4.071662
v 4.000000 1.041780 4.071662
v 4.000000 0.752587 1.486460
v -0.192514 1.041780 4.071662
v -0.192514 0.752587 1.486460
v 0.195319 1.041780 4.071662
v 0.195319 0.752587 1.486460
v -4.000000 0.646359 4.115896
v 4.000000 0.646359 4.115896
v 4.000000 0.357166 1.530693
v -0.192514 0.646359 4.115896
v -0.192514 0.357166 1.530693
v 0.195319 0.646359 4.115896
v 0.195319 0.357166 1.530693
v -4.000000 0.357166 1.530693
v -0.192514 0.597015 0.095742
v 0.195319 0.597015 0.095742
v -0.192514 0.201594 0.139975
v 0.195319 0.201594 0.139975
v -0.192514 0.224269 0.342676
v 0.195319 0.224269 0.342676
v 0.195319 0.619690 0.298442
v -0.192514 0.619690 0.298442
v -0.977030 5.242646 0.238846
v -0.975202 5.225668 0.280583
v -1.018706 5.233363 0.236896
v -1.016878 5.216385 0.278633
vt 0.495267 0.113054
vt 0.495267 0.000000
vt 0.742900 0.000000
vt 0.000000 0.000000
vt 0.247633 0.000000
vt 0.247633 0.113468
vt 0.000000 0.735849
vt 0.000000 0.490566
vt 0.114137 0.490566
vt 0.495267 0.490566
vt 0.247633 0.490566
vt 0.247633 0.376926
vt 0.133078 0.245283
vt 0.247633 0.245283
vt 0.247633 0.358337
vt 0.372524 0.123564
vt 0.495267 0.131643
vt 0.495267 0.245283
vt 0.742900 0.113054
vt 0.742900 0.132229
vt 0.133496 0.735849
vt 0.133496 0.490566
vt 0.133078 0.358337
vt 0.247633 0.377512
vt 0.370376 0.123564
vt 0.381130 0.245283
vt 0.114137 0.735849
vt 0.495267 0.132229
vt 0.742900 0.245283
vt 0.133078 0.490566
vt 0.133118 0.377546
vt 0.361771 0.245283
vt 0.000000 0.131643
vt 0.000000 0.113468
vt 0.495267 0.358751
vt 0.247633 0.358751
vt 0.114729 0.245283
vt 0.495267 0.113468
vt 0.372524 0.121547
vt 0.114649 0.358304
vt 0.381130 0.000000
vt 0.370376 0.121547
vt 0.114729 0.490566
vt 0.114729 0.377512
vt 0.361771 0.000000
vt 0.495267 0.376926
vt 0.466007 0.490566
vt 0.468155 0.490566
vt 0.468155 0.823303
vt 0.247633 0.131643
vt 0.000000 0.358337
vt 0.000000 0.245283
vt 0.000000 0.377512
vt 0.953602 0.745346
vt 0.990660 0.745346
vt 0.990660 0.868050
vt 0.953666 0.245283
vt 0.990723 0.245283
vt 0.990723 0.424749
vt 0.334392 0.867924
vt 0.371450 0.867924
vt 0.371450 0.990628
vt 0.705906 0.622641
vt 0.742963 0.622641
vt 0.742963 0.802240
vt 0.371513 0.688458
vt 0.247633 0.867924
vt 0.743027 0.443043
vt 0.619147 0.622641
vt 0.953666 0.443043
vt 0.990723 0.443043
vt 0.990723 0.622641
vt 0.705906 0.802240
vt 0.742963 0.820534
vt 0.371513 0.490566
vt 0.371513 0.670164
vt 0.743027 0.424749
vt 0.619147 0.443043
vt 0.953666 0.424749
vt 0.247633 0.688458
vt 0.705906 1.000000
vt 0.705906 0.820534
vt 0.743027 0.245283
vt 0.619147 0.424749
vt 0.866843 0.745346
vt 0.904337 0.745346
vt 0.904337 0.868050
vt 0.866907 0.245283
vt 0.904400 0.245283
vt 0.904401 0.424749
vt 0.285127 0.867924
vt 0.285127 0.990628
vt 0.656641 0.622642
vt 0.656641 0.802240
vt 0.866907 0.443043
vt 0.904400 0.443043
vt 0.904401 0.622641
vt 0.619147 0.802240
vt 0.656641 0.820534
vt 0.866907 0.424749
vt 0.619147 1.000000
vt 0.619147 0.820534
vt 0.953602 0.868050
vt 0.334392 0.990628
vt 0.953666 0.622641
vt 0.408452 0.566196
vt 0.408452 0.556575
vt 0.426921 0.556575
vt 0.656641 1.000000
vt 0.076355 0.784646
vt 0.066642 0.784646
vt 0.066642 0.735849
vt 0.819255 0.160378
vt 0.819255 0.209175
vt 0.809542 0.209175
vt 0.389983 0.490566
vt 0.389983 0.650944
vt 0.371554 0.650926
vt 0.408452 0.622584
vt 0.426921 0.566196
vt 0.133283 0.735849
vt 0.133283 0.784646
vt 0.876183 0.209175
vt 0.445390 0.546954
vt 0.445390 0.490566
vt 0.463860 0.490566
vt 0.799862 0.000018
vt 0.819255 0.000000
vt 0.829786 0.820534
vt 0.866843 0.820534
vt 0.866843 1.000000
vt 1.000000 0.000000
vt 1.000000 0.122704
vt 0.962942 0.122704
vt 0.619084 0.820402
vt 0.582026 1.000000
vt 0.619147 0.245283
vt 0.866907 0.424881
vt 0.866843 0.622641
vt 0.866843 0.802240
vt 0.829786 0.802240
vt 0.619084 0.802108
vt 0.582026 0.820402
vt 0.495267 0.443043
vt 0.743027 0.424881
vt 0.866907 0.443175
vt 0.495267 0.424749
vt 0.582026 0.802108
vt 0.743027 0.443175
vt 0.904337 0.622642
vt 0.780520 0.820534
vt 0.780520 1.000000
vt 0.743027 1.000000
vt 0.913677 0.000000
vt 0.913677 0.122704
vt 0.876183 0.122704
vt 0.495267 0.820402
vt 0.532761 0.820402
vt 0.532761 1.000000
vt 0.780520 0.622642
vt 0.780520 0.802240
vt 0.532761 0.802108
vt 0.532761 0.622642
vt 0.495267 0.802108
vt 0.953602 0.622642
vt 0.829786 1.000000
vt 0.962942 0.000000
vt 0.829786 0.622641
vt 0.408452 0.546954
vt 0.582026 0.622641
vt 0.056928 0.784646
vt 0.809542 0.160378
vt 0.799829 0.209175
vt 0.426921 0.546954
vt 0.408452 0.490566
vt 0.056928 0.735849
vt 0.000000 0.784646
vt 0.799829 0.160378
vt 0.742900 0.209175
vt 0.426921 0.490566
vt 0.056928 0.945024
vt 0.408372 0.490584
vt 0.408452 0.650944
vt 0.474261 0.492693
vt 0.472226 0.492693
vt 0.472226 0.490566
vt 0.472226 0.823303
vt 0.470190 0.823303
vt 0.466007 0.823303
vt 0.463860 0.823303
vt 0.247633 0.735849
vt 0.247633 0.670164
vt 0.866843 0.868050
vt 0.247633 0.990628
vt 0.866907 0.622642
vt 0.076355 0.735849
vt 0.426921 0.622584
vt 0.876183 0.160378
vt 0.463860 0.546954
vt 0.495267 0.622641
vt 0.876183 0.000000
vt 0.495267 1.000000
vt 0.742900 0.160378
vt 0.076321 0.945007
vt 0.474261 0.490566
vt 0.470190 0.490566
vn -0.975100 -0.220500 0.024700
vn -0.040500 0.067700 -0.996900
vn 0.975100 0.220500 -0.024700
vn 0.030600 -0.069900 0.997100
vn 0.218200 -0.973000 -0.074900
vn -0.218200 0.973000 0.074900
vn -0.218200 0.973000 0.075000
vn 0.215300 -0.967300 -0.133700
vn 0.037100 -0.052400 0.997900
vn 0.217800 -0.973100 -0.074600
vn 0.215800 -0.967100 -0.134400
vn 0.038100 -0.056700 0.997700
vn -0.840900 -0.541200 -0.002600
vn 0.218200 -0.973000 -0.075300
vn -1.000000 0.000000 0.000000
vn 0.000000 0.000000 -1.000000
vn 1.000000 0.000000 0.000000
vn 0.000000 0.000000 1.000000
vn 0.000000 -1.000000 0.000000
vn 0.000000 1.000000 0.000000
vn 0.000000 -0.955300 0.295700
vn 0.074900 -0.952600 0.294900
vn -0.027400 0.000000 0.999600
vn 0.000000 0.183800 0.983000
vn -0.039000 0.000000 0.999200
vn 0.000000 -0.993800 0.111200
vn 0.019800 0.111100 0.993600
vn 0.045700 -0.301500 -0.952400
vn 0.000000 0.993800 -0.111200
vn -0.968600 0.241400 0.059600
vn 0.000000 0.111200 0.993800
vn 0.000000 -0.111200 -0.993800
vn 0.975200 -0.220000 0.024600
vn -0.050000 0.318500 0.946600
vn -0.218200 0.900600 0.375900
vn 0.019000 -0.286600 0.957900
vn -0.080300 0.247100 -0.965700
vn 0.853900 0.494000 0.163600
vn 0.218100 -0.973100 -0.074600
vn 0.275100 -0.958400 -0.076300
vn 0.054000 -0.064600 0.996400
vn 0.217800 -0.973100 -0.074900
vn 0.218500 -0.972900 -0.075300
vn 0.219900 -0.966300 -0.133800
vn 0.013100 -0.057400 0.998300
vn -0.853800 -0.494200 -0.163600
vn 0.156300 -0.978700 -0.133500
vn -0.074900 -0.952600 0.294900
vn 0.027400 0.000000 0.999600
vn -0.019800 0.111100 0.993600
vn 0.039000 0.000000 0.999200
vn 0.000000 -0.281500 -0.959600
vn -0.969900 0.241800 -0.027100
vn 0.973900 -0.220100 -0.056300
vn 0.000000 0.295100 0.955500
vn 0.080400 -0.247300 0.965600
vn -0.018900 0.286000 -0.958000
vn 0.840800 0.541300 0.002600
usemtl None
s off
f 9/1/1 6/2/1 2/3/1
f 7/4/2 3/5/2 18/6/2
f 8/7/3 4/8/3 16/9/3
f 5/10/4 1/11/4 30/12/4
f 18/13/5 3/14/5 12/15/5
f 27/16/6 29/17/6 6/18/6
f 9/1/1 10/19/1 13/20/1
f 11/21/3 12/22/3 3/11/3
f 21/23/5 12/15/5 16/24/5
f 28/25/7 27/16/7 9/26/7
f 11/21/3 14/27/3 16/9/3
f 15/28/1 13/20/1 1/29/1
f 20/30/8 23/31/8 16/24/8
f 28/25/6 15/32/6 5/14/6
f 29/33/2 17/34/2 18/6/2
f 8/18/9 19/35/9 20/36/9
f 25/37/5 18/13/5 21/23/5
f 7/2/6 17/38/6 22/39/6
f 31/40/10 21/23/10 23/31/10
f 11/41/6 22/39/6 24/42/6
f 30/43/11 32/44/11 23/31/11
f 8/5/6 14/45/6 24/42/6
f 19/35/12 26/46/12 30/12/12
f 17/38/6 29/17/6 27/16/6
f 27/47/13 28/48/13 112/49/13
f 19/6/6 24/42/6 28/25/6
f 29/33/2 25/50/2 2/14/2
f 10/51/5 2/52/5 25/37/5
f 10/51/14 31/40/14 32/44/14
f 1/8/5 13/53/5 32/44/5
f 57/54/15 34/55/15 33/56/15
f 58/57/16 35/58/16 47/59/16
f 59/60/17 36/61/17 35/62/17
f 64/63/18 33/64/18 44/65/18
f 47/66/19 35/61/19 36/67/19
f 41/68/20 38/64/20 37/69/20
f 60/70/16 42/71/16 34/72/16
f 61/73/21 44/65/21 46/74/21
f 33/11/19 34/75/19 42/76/19
f 45/77/20 41/68/20 43/78/20
f 62/79/16 47/59/16 42/71/16
f 42/76/19 47/66/19 46/80/19
f 59/81/22 63/82/22 46/74/22
f 39/83/20 45/77/20 48/84/20
f 38/85/15 50/86/15 49/87/15
f 39/88/16 51/89/16 55/90/16
f 40/67/17 52/91/17 51/92/17
f 37/69/23 49/93/23 54/94/23
f 41/95/16 53/96/16 50/97/16
f 43/98/24 54/94/24 56/99/24
f 41/95/16 45/100/16 55/90/16
f 40/101/24 48/102/24 56/99/24
f 50/86/15 57/54/15 64/103/15
f 51/89/16 58/57/16 62/79/16
f 52/91/17 59/60/17 58/104/17
f 49/93/25 64/63/25 61/73/25
f 53/96/16 60/70/16 57/105/16
f 66/106/26 104/107/26 103/108/26
f 55/90/16 62/79/16 60/70/16
f 52/109/27 56/99/27 63/82/27
f 67/110/17 102/111/17 104/112/17
f 68/113/15 65/114/15 103/115/15
f 68/116/28 31/117/28 21/118/28
f 63/119/26 66/106/26 65/120/26
f 63/121/17 56/122/17 67/110/17
f 61/123/15 65/114/15 68/113/15
f 54/124/29 68/125/29 67/126/29
f 32/127/30 31/128/30 68/113/30
f 69/72/15 70/55/15 93/54/15
f 98/129/31 83/130/31 71/131/31
f 71/132/17 72/133/17 95/134/17
f 80/135/32 69/101/32 100/136/32
f 72/18/26 71/137/26 83/84/26
f 73/83/29 74/88/29 77/138/29
f 70/139/31 78/140/31 96/141/31
f 82/142/32 80/135/32 97/143/32
f 80/144/26 78/78/26 70/69/26
f 79/145/29 77/138/29 81/146/29
f 78/140/31 83/130/31 98/129/31
f 82/147/26 83/84/26 78/78/26
f 72/69/32 82/142/32 99/148/32
f 76/64/29 84/149/29 81/146/29
f 85/150/15 86/86/15 74/85/15
f 91/151/31 87/152/31 75/153/31
f 87/154/17 88/155/17 76/156/17
f 79/157/32 90/158/32 85/159/32
f 74/64/31 86/160/31 89/161/31
f 92/162/32 90/158/32 79/157/32
f 77/65/31 89/161/31 91/151/31
f 88/163/32 92/162/32 84/164/32
f 85/150/15 100/165/15 93/54/15
f 98/129/31 94/166/31 87/152/31
f 94/167/17 95/134/17 88/155/17
f 97/143/32 100/136/32 85/159/32
f 93/168/31 96/141/31 89/161/31
f 103/108/26 104/107/26 106/169/26
f 96/141/31 98/129/31 91/151/31
f 95/170/32 99/148/32 92/162/32
f 104/112/17 102/111/17 107/171/17
f 101/172/15 103/115/15 105/173/15
f 105/174/26 106/169/26 99/175/26
f 106/176/17 107/171/17 92/177/17
f 108/178/15 105/173/15 97/179/15
f 107/124/29 108/174/29 90/180/29
f 23/181/33 107/171/33 102/111/33
f 23/116/34 32/182/34 108/183/34
f 109/184/35 111/185/35 112/186/35
f 24/186/36 110/187/36 112/188/36
f 22/188/37 27/49/37 111/48/37
f 22/47/38 109/189/38 110/190/38
f 10/19/1 9/1/1 2/3/1
f 17/34/2 7/4/2 18/6/2
f 14/27/3 8/7/3 16/9/3
f 26/46/12 5/10/12 30/12/12
f 21/23/5 18/13/5 12/15/5
f 9/26/6 27/16/6 6/18/6
f 15/28/1 9/1/1 13/20/1
f 7/191/3 11/21/3 3/11/3
f 23/31/39 21/23/39 16/24/39
f 15/32/6 28/25/6 9/26/6
f 12/22/3 11/21/3 16/9/3
f 5/18/1 15/28/1 1/29/1
f 4/11/40 20/30/40 16/24/40
f 26/50/6 28/25/6 5/14/6
f 25/50/2 29/33/2 18/6/2
f 4/14/41 8/18/41 20/36/41
f 31/40/42 25/37/42 21/23/42
f 11/41/6 7/2/6 22/39/6
f 32/44/43 31/40/43 23/31/43
f 14/45/6 11/41/6 24/42/6
f 20/30/44 30/43/44 23/31/44
f 19/6/6 8/5/6 24/42/6
f 20/36/45 19/35/45 30/12/45
f 22/39/6 17/38/6 27/16/6
f 111/189/46 27/47/46 112/49/46
f 26/50/6 19/6/6 28/25/6
f 6/52/2 29/33/2 2/14/2
f 31/40/5 10/51/5 25/37/5
f 13/53/5 10/51/5 32/44/5
f 30/43/47 1/8/47 32/44/47
f 64/103/15 57/54/15 33/56/15
f 62/79/16 58/57/16 47/59/16
f 58/104/17 59/60/17 35/62/17
f 61/73/48 64/63/48 44/65/48
f 46/80/19 47/66/19 36/67/19
f 43/78/20 41/68/20 37/69/20
f 57/105/16 60/70/16 34/72/16
f 63/82/21 61/73/21 46/74/21
f 44/192/19 33/11/19 42/76/19
f 48/84/20 45/77/20 43/78/20
f 60/70/16 62/79/16 42/71/16
f 44/192/19 42/76/19 46/80/19
f 36/153/18 59/81/18 46/74/18
f 40/137/20 39/83/20 48/84/20
f 37/193/15 38/85/15 49/87/15
f 45/100/16 39/88/16 55/90/16
f 39/194/17 40/67/17 51/92/17
f 43/98/24 37/69/24 54/94/24
f 38/195/16 41/95/16 50/97/16
f 48/102/24 43/98/24 56/99/24
f 53/96/16 41/95/16 55/90/16
f 52/109/49 40/101/49 56/99/49
f 49/87/15 50/86/15 64/103/15
f 55/90/16 51/89/16 62/79/16
f 51/92/17 52/91/17 58/104/17
f 54/94/50 49/93/50 61/73/50
f 50/97/16 53/96/16 57/105/16
f 65/120/26 66/106/26 103/108/26
f 53/96/16 55/90/16 60/70/16
f 59/81/51 52/109/51 63/82/51
f 66/196/17 67/110/17 104/112/17
f 101/172/15 68/113/15 103/115/15
f 67/75/52 68/116/52 21/118/52
f 61/197/26 63/119/26 65/120/26
f 66/196/17 63/121/17 67/110/17
f 54/198/15 61/123/15 68/113/15
f 56/199/29 54/124/29 67/126/29
f 108/178/53 32/127/53 101/172/53
f 100/165/15 69/72/15 93/54/15
f 94/166/31 98/129/31 71/131/31
f 32/127/53 68/113/53 101/172/53
f 94/167/17 71/132/17 95/134/17
f 97/143/32 80/135/32 100/136/32
f 82/147/26 72/18/26 83/84/26
f 79/145/29 73/83/29 77/138/29
f 93/168/31 70/139/31 96/141/31
f 99/148/32 82/142/32 97/143/32
f 69/200/26 80/144/26 70/69/26
f 84/149/29 79/145/29 81/146/29
f 96/141/31 78/140/31 98/129/31
f 80/144/26 82/147/26 78/78/26
f 95/170/32 72/69/32 99/148/32
f 75/195/29 76/64/29 81/146/29
f 73/139/15 85/150/15 74/85/15
f 81/74/31 91/151/31 75/153/31
f 75/201/17 87/154/17 76/156/17
f 73/202/32 79/157/32 85/159/32
f 77/65/31 74/64/31 89/161/31
f 84/164/32 92/162/32 79/157/32
f 81/74/31 77/65/31 91/151/31
f 76/200/32 88/163/32 84/164/32
f 86/86/15 85/150/15 93/54/15
f 91/151/31 98/129/31 87/152/31
f 87/154/17 94/167/17 88/155/17
f 90/158/32 97/143/32 85/159/32
f 86/160/31 93/168/31 89/161/31
f 105/174/26 103/108/26 106/169/26
f 89/161/31 96/141/31 91/151/31
f 88/163/32 95/170/32 92/162/32
f 106/176/17 104/112/17 107/171/17
f 108/178/15 101/172/15 105/173/15
f 97/180/26 105/174/26 99/175/26
f 99/7/17 106/176/17 92/177/17
f 90/203/15 108/178/15 97/179/15
f 92/125/29 107/124/29 90/180/29
f 21/204/54 23/181/54 67/110/54
f 107/117/55 23/116/55 108/183/55
f 110/205/35 109/184/35 112/186/35
f 23/181/33 102/111/33 67/110/33
f 28/206/56 24/186/56 112/188/56
f 109/206/57 22/188/57 111/48/57
f 24/126/58 22/47/58 110/190/58
